<svg width="167" height="68" viewBox="0 0 167 68" fill="none" xmlns="http://www.w3.org/2000/svg">
<path d="M6.8318 52.1298L6.95082 53.5H8.32617H19.416H20.3335L20.7514 52.6832L45.5873 4.14024L46.7043 1.95703H44.252H33.7598H32.8232L32.4121 2.79849L18.1347 32.0172L18.1292 32.0285L18.1239 32.0399C17.7973 32.7377 17.4805 33.4449 17.1736 34.1616C17.1566 33.6092 17.1303 33.0816 17.0946 32.579L15.4018 3.37025L15.3199 1.95703H13.9043H4.10938H2.47343L2.615 3.58684L6.8318 52.1298Z" fill="#79E1F8" stroke="black" stroke-width="3"/>
<path d="M48.0098 53.4883C45.8451 53.4883 44.1198 53.0326 42.834 52.1211C41.5482 51.2096 40.9053 49.5658 40.9053 47.1895C40.9053 46.7988 40.9297 46.3757 40.9785 45.9199C41.0273 45.4479 41.1006 44.9596 41.1982 44.4551L44.0059 31.2959H40.2949L41.0029 27.707L45.7881 25.6562L49.0107 19.8945H53.7471L52.5508 25.7051H59.46L58.2393 31.2959H51.3545L48.5469 44.4551C48.498 44.6992 48.4574 44.9434 48.4248 45.1875C48.4085 45.4154 48.4004 45.6025 48.4004 45.749C48.4004 46.4001 48.5957 46.8639 48.9863 47.1406C49.377 47.4173 49.8978 47.5557 50.5488 47.5557C51.2161 47.5557 51.8509 47.4824 52.4531 47.3359C53.0716 47.1732 53.7552 46.9616 54.5039 46.7012V52.1943C53.7227 52.5687 52.7786 52.8779 51.6719 53.1221C50.5814 53.3662 49.3607 53.4883 48.0098 53.4883ZM56.9111 53L62.6973 25.7051H68.3125L67.7998 30.7588H68.0684C68.8008 29.6032 69.5983 28.6104 70.4609 27.7803C71.3236 26.9502 72.2594 26.3154 73.2686 25.876C74.2777 25.4202 75.3763 25.1924 76.5645 25.1924C76.9551 25.1924 77.3701 25.2168 77.8096 25.2656C78.2653 25.3145 78.6315 25.3796 78.9082 25.4609L77.2969 32.541C77.0365 32.4434 76.6865 32.3538 76.2471 32.2725C75.8239 32.1911 75.36 32.1504 74.8555 32.1504C73.944 32.1504 73.0732 32.3376 72.2432 32.7119C71.4131 33.07 70.6481 33.6071 69.9482 34.3232C69.2484 35.0394 68.6299 35.9427 68.0928 37.0332C67.5719 38.1074 67.1569 39.3607 66.8477 40.793L64.2598 53H56.9111ZM84.4648 53.4883C83.1465 53.4883 81.9014 53.1628 80.7295 52.5117C79.5576 51.8607 78.5973 50.8109 77.8486 49.3623C77.1162 47.9137 76.75 45.9932 76.75 43.6006C76.75 41.8102 76.9372 40.0361 77.3115 38.2783C77.7021 36.5205 78.2555 34.8604 78.9717 33.2979C79.7041 31.7191 80.583 30.3275 81.6084 29.123C82.6501 27.9023 83.8219 26.9421 85.124 26.2422C86.4424 25.5423 87.8665 25.1924 89.3965 25.1924C90.5521 25.1924 91.5612 25.3633 92.4238 25.7051C93.2865 26.0306 94.027 26.4945 94.6455 27.0967C95.264 27.6989 95.7686 28.3988 96.1592 29.1963H96.3545L97.7461 25.7051H103.41L97.5996 53H92.1064L92.4482 49.46H92.2529C91.6019 50.2575 90.8939 50.9574 90.1289 51.5596C89.3639 52.1618 88.5176 52.6338 87.5898 52.9756C86.6621 53.3174 85.6204 53.4883 84.4648 53.4883ZM87.3457 47.5557C88.3548 47.5557 89.2907 47.165 90.1533 46.3838C91.016 45.5863 91.7565 44.5527 92.375 43.2832C92.9935 42.0137 93.4329 40.6709 93.6934 39.2549C93.8236 38.6038 93.9131 37.9528 93.9619 37.3018C94.027 36.6344 94.0596 35.9183 94.0596 35.1533C94.0596 33.9977 93.7503 33.0456 93.1318 32.2969C92.5296 31.5319 91.6995 31.1494 90.6416 31.1494C89.9255 31.1494 89.2419 31.3854 88.5908 31.8574C87.9561 32.3132 87.3701 32.9479 86.833 33.7617C86.2959 34.5592 85.8239 35.4788 85.417 36.5205C85.0264 37.5459 84.7253 38.6364 84.5137 39.792C84.3021 40.9476 84.1963 42.1032 84.1963 43.2588C84.1963 44.6748 84.473 45.749 85.0264 46.4814C85.5798 47.1976 86.3529 47.5557 87.3457 47.5557ZM107.648 53L104.279 25.7051H111.481L112.58 40.0117C112.613 40.4186 112.637 40.9557 112.653 41.623C112.686 42.2741 112.71 42.9577 112.727 43.6738C112.743 44.39 112.751 45.0492 112.751 45.6514H112.995C113.19 45.098 113.41 44.4795 113.654 43.7959C113.915 43.096 114.175 42.4287 114.436 41.7939C114.696 41.1429 114.932 40.6139 115.144 40.207L122.395 25.7051H130.28L115.534 53H107.648ZM137.912 53.4883C135.78 53.4883 133.9 53.1058 132.272 52.3408C130.661 51.5596 129.4 50.3877 128.488 48.8252C127.577 47.2627 127.121 45.3014 127.121 42.9414C127.121 40.6628 127.447 38.4655 128.098 36.3496C128.749 34.2174 129.717 32.3132 131.003 30.6367C132.305 28.9603 133.9 27.6338 135.788 26.6572C137.692 25.6807 139.89 25.1924 142.38 25.1924C145.44 25.1924 147.727 25.8923 149.24 27.292C150.77 28.6755 151.535 30.4577 151.535 32.6387C151.535 34.071 151.21 35.373 150.559 36.5449C149.924 37.7168 148.955 38.7259 147.653 39.5723C146.351 40.4023 144.715 41.0452 142.746 41.501C140.777 41.9404 138.465 42.1602 135.812 42.1602H134.567C134.551 42.3555 134.535 42.5264 134.519 42.6729C134.519 42.8193 134.519 42.9821 134.519 43.1611C134.519 44.626 134.942 45.7897 135.788 46.6523C136.634 47.515 137.831 47.9463 139.377 47.9463C140.809 47.9463 142.111 47.7835 143.283 47.458C144.455 47.1325 145.839 46.5954 147.434 45.8467V51.3887C146.001 52.0885 144.545 52.6175 143.063 52.9756C141.582 53.3174 139.865 53.4883 137.912 53.4883ZM135.373 37.2041H136.472C138.36 37.2041 139.89 37.0007 141.062 36.5938C142.25 36.1868 143.112 35.6497 143.649 34.9824C144.203 34.3151 144.479 33.5908 144.479 32.8096C144.479 32.0283 144.252 31.4505 143.796 31.0762C143.356 30.6855 142.73 30.4902 141.916 30.4902C141.005 30.4902 140.101 30.7751 139.206 31.3447C138.311 31.9144 137.521 32.7038 136.838 33.7129C136.154 34.722 135.666 35.8857 135.373 37.2041ZM151.208 53L159.265 15.0117H166.613L158.557 53H151.208Z" fill="black"/>
<line x1="6" y1="60" x2="158" y2="60" stroke="black" stroke-width="2"/>
</svg>
